<?xml version="1.0" encoding="utf-8"?>
<svg version="1.1" id="Layer_1" xmlns="http://www.w3.org/2000/svg" xmlns:xlink="http://www.w3.org/1999/xlink" x="0px" y="0px"
	 viewBox="0 0 200 200" style="enable-background:new 0 0 200 200;" xml:space="preserve">
<style type="text/css">
	.st0{fill:#161616;}
	.st1{fill:#FFFFFF;}
</style>
<circle class="st0" cx="100" cy="100" r="100"/>
<g>
	<path class="st1" d="M54.2,143.5c-20.3-29.9-6-53.3-6-53.3c-3.3-1-14,6-14,6c6-21.9,38.9-40.6,38.9-40.6c-3.7-1.3-14,1.3-14,1.3
		c26.9-25.9,59.9-16.3,59.9-16.3c1-5.7,17.3-15.6,17.3-15.6c-1.7,1.7-2.3,10.6-2.3,10.6c1.7-3,7-6,7-6c-3,7,0,21.9,0,21.9
		c8.6,8.7,18.3,38.6,18.3,38.6l3.7,5.3c4.7,6.7,2.9,17.1-1.7,19.6c-17.3,9.3-19-7.6-19-7.6c-14.3-1.7-24.9-17.6-24.9-17.6
		c-19.3,10-8.5,38.1-0.2,48.9c10.7,13.8,2.9,36.3,2.9,36.3S74.3,173.1,54.2,143.5z"/>
</g>
</svg>
