<?xml version="1.0" standalone="no"?>
<!DOCTYPE svg PUBLIC "-//W3C//DTD SVG 20010904//EN"
 "http://www.w3.org/TR/2001/REC-SVG-20010904/DTD/svg10.dtd">
<svg version="1.0" xmlns="http://www.w3.org/2000/svg"
 width="512.000000pt" height="512.000000pt" viewBox="0 0 512.000000 512.000000"
 preserveAspectRatio="xMidYMid meet">
<metadata>
Created by potrace 1.11, written by Peter Selinger 2001-2013
</metadata>
<g transform="translate(0.000000,512.000000) scale(0.100000,-0.100000)"
fill="#000000" stroke="none">
<path d="M0 2560 l0 -2560 2560 0 2560 0 0 2560 0 2560 -2560 0 -2560 0 0
-2560z m3167 1783 c-13 -26 -31 -110 -40 -191 l-4 -33 46 44 c50 48 110 92
116 85 3 -2 -1 -22 -8 -44 -15 -51 -14 -296 2 -399 11 -69 19 -88 58 -139 114
-153 247 -437 367 -786 25 -71 54 -131 91 -185 75 -110 96 -163 102 -254 6
-84 -12 -169 -49 -229 -53 -87 -269 -150 -370 -108 -54 23 -114 95 -134 162
-23 76 -27 80 -75 88 -58 9 -153 51 -234 104 -68 43 -245 211 -298 282 -25 33
-27 34 -53 20 -45 -24 -120 -97 -153 -148 -49 -77 -72 -155 -78 -267 -12 -227
75 -499 235 -734 123 -181 157 -293 156 -511 -1 -134 -16 -247 -50 -359 l-16
-54 -81 6 c-45 4 -134 16 -197 27 -455 82 -824 240 -1095 470 -338 287 -550
783 -506 1185 14 119 43 236 83 324 15 35 26 66 24 69 -17 16 -179 -52 -293
-122 l-41 -26 5 22 c13 56 105 230 163 308 80 108 275 303 410 410 58 46 165
123 238 172 l134 88 -80 0 c-44 0 -117 -7 -162 -16 -45 -8 -84 -13 -86 -11 -7
7 127 115 213 173 169 113 366 194 578 236 176 36 478 31 642 -8 17 -5 25 1
38 27 23 43 95 120 171 180 57 45 233 169 241 169 2 0 -3 -12 -10 -27z"/>
</g>
</svg>
