<?xml version="1.0" encoding="utf-8"?>
<svg version="1.1" id="Layer_1" xmlns="http://www.w3.org/2000/svg" xmlns:xlink="http://www.w3.org/1999/xlink" x="0px" y="0px"
	 viewBox="0 0 420 100" style="enable-background:new 0 0 420 100;" xml:space="preserve">
<style type="text/css">
	.st0{fill:#FFFFFF;}
	.st1{fill:#426482;}
	.st2{fill:#333333;}
</style>
<rect x="0.2" class="st0" width="420" height="100"/>
<g>
	<g>
		<circle class="st1" cx="44.7" cy="38.1" r="34.8"/>
		<polygon class="st0" points="29.2,2.8 29.2,38.7 45.2,44.5 60.2,38.7 60.2,2.8 		"/>
		<path class="st1" d="M57.8,47.8h-25c-1.6,0-3,1.3-3,3v39.5c0,1.7,1.4,3,3,3h25c1.7,0,3-1.3,3-3V50.8
			C60.8,49.1,59.4,47.8,57.8,47.8z"/>
	</g>
	<g>
		<path class="st2" d="M126.5,20.2c1.4,0,2.5,0.5,3.5,1.4c0.9,1,1.4,2.1,1.4,3.5c0,1.3-0.5,2.5-1.4,3.4c-1,1-2.1,1.4-3.5,1.4h-8.7
			v42.9c0,1.3-0.5,2.5-1.4,3.4s-2.1,1.4-3.4,1.4c-1.4,0-2.5-0.5-3.5-1.4s-1.4-2.1-1.4-3.4V30h-8.7c-1.3,0-2.5-0.5-3.4-1.4
			s-1.4-2.1-1.4-3.4c0-1.4,0.5-2.5,1.4-3.5c1-1,2.1-1.4,3.4-1.4H126.5z"/>
		<path class="st2" d="M151.4,77.8c-5,0-9.3-1.8-12.8-5.3c-3.6-3.5-5.3-7.8-5.3-12.8v-5.8c0-5,1.8-9.3,5.3-12.8
			c3.5-3.6,7.8-5.3,12.8-5.3h0.1c5,0,9.3,1.8,12.8,5.3s5.3,7.8,5.3,12.8v5.8c0,5-1.8,9.3-5.3,12.8c-3.6,3.6-7.8,5.3-12.8,5.3H151.4z
			 M151.4,45.1c-2.4,0-4.5,0.9-6.2,2.6c-1.7,1.7-2.6,3.8-2.6,6.2v5.8c0,2.4,0.9,4.5,2.6,6.2c1.7,1.7,3.8,2.6,6.2,2.6h0.1
			c2.4,0,4.5-0.9,6.2-2.6c1.7-1.7,2.6-3.8,2.6-6.2v-5.8c0-2.4-0.9-4.5-2.6-6.2c-1.7-1.7-3.8-2.6-6.2-2.6H151.4z"/>
		<path class="st2" d="M178.1,76.4c-0.9-0.9-1.4-2-1.4-3.3V53.8c0-5,1.8-9.3,5.3-12.8c3.6-3.6,7.8-5.3,12.8-5.3h2.6
			c1.3,0,2.4,0.5,3.3,1.4c0.9,0.9,1.4,2,1.4,3.3s-0.5,2.4-1.4,3.3c-0.9,0.9-2,1.3-3.3,1.3h-2.6c-2.4,0-4.5,0.9-6.2,2.6
			c-1.7,1.7-2.6,3.8-2.6,6.2v19.3c0,1.3-0.5,2.4-1.4,3.3c-0.9,0.9-2,1.4-3.3,1.4C180.1,77.8,179,77.3,178.1,76.4z"/>
		<path class="st2" d="M228.9,56.3c4.9,3.9,7.3,8.9,7.3,15.1c0,0.8-0.1,1.5-0.2,2.4c-0.1,1.1-0.7,2.1-1.5,2.9
			c-0.9,0.8-1.9,1.1-3,1.1c-0.2,0-0.4,0-0.6,0c-1.2-0.1-2.3-0.7-3-1.7c-0.8-1-1.1-2.1-0.9-3.4c0.1-0.5,0.1-0.9,0.1-1.2
			c0-2.6-0.9-4.9-2.7-6.8c-1.8-1.9-3.9-3-6.5-3.2v11.7c0,1.3-0.4,2.4-1.3,3.2c-0.9,0.9-2,1.3-3.2,1.3c-1.3,0-2.4-0.4-3.2-1.3
			c-0.9-0.9-1.3-2-1.3-3.2V25c0-1.3,0.4-2.4,1.3-3.2c0.9-0.9,2-1.3,3.2-1.3c1.2,0,2.3,0.4,3.2,1.3c0.9,0.9,1.3,2,1.3,3.2V52
			c2.2-0.4,4-1.5,5.5-3.1c1.5-1.6,2.3-3.5,2.6-5.7c0.1-1.2,0.7-2.3,1.6-3.1c1-0.8,2.1-1.2,3.4-1c1.2,0.1,2.3,0.7,3.1,1.7
			c0.8,1,1.1,2.1,1,3.3C234.5,49,232.5,53,228.9,56.3z"/>
		<path class="st2" d="M292.9,36.1c1.2,0.5,2,1.3,2.6,2.5c0.5,1.2,0.5,2.4,0,3.6l-13.4,32.7c-0.3,0.9-0.9,1.6-1.7,2.1
			c-0.8,0.5-1.6,0.8-2.6,0.8s-1.8-0.3-2.6-0.8c-0.8-0.5-1.4-1.3-1.7-2.1L268,61.6l-5.4,13.3c-0.4,0.9-1,1.6-1.7,2.1
			c-0.8,0.5-1.7,0.8-2.6,0.8s-1.8-0.3-2.6-0.8c-0.8-0.5-1.4-1.3-1.7-2.1l-13.4-32.7c-0.5-1.2-0.5-2.4,0-3.6c0.5-1.2,1.4-2,2.6-2.5
			c1.2-0.5,2.4-0.5,3.6,0c1.2,0.5,2.1,1.3,2.6,2.6l9,22.1l5.5-13.3v0l3.6-8.7c0.5-1.2,1.3-2.1,2.6-2.6c1.2-0.5,2.4-0.5,3.6,0
			c1.2,0.5,2.1,1.3,2.6,2.5c0.5,1.2,0.5,2.4,0,3.6l-2.9,7l4.7,11.5l9-22.1c0.5-1.2,1.3-2.1,2.6-2.6
			C290.5,35.6,291.7,35.6,292.9,36.1z"/>
		<path class="st2" d="M335.9,73.1c0,1.3-0.5,2.4-1.4,3.3c-0.9,0.9-2,1.4-3.3,1.4c-1.9,0-3.3-0.9-4.2-2.6c-2.9,1.7-6,2.6-9.3,2.6
			h-0.1c-5,0-9.3-1.8-12.8-5.3c-3.6-3.5-5.3-7.8-5.3-12.8v-5.8c0-5,1.8-9.3,5.3-12.8c3.5-3.6,7.8-5.3,12.8-5.3h0.1
			c5,0,9.3,1.8,12.8,5.3s5.3,7.8,5.3,12.8V73.1z M317.7,68.4c2.4,0,4.5-0.9,6.2-2.6c1.7-1.7,2.6-3.8,2.6-6.2v-5.8
			c0-2.4-0.9-4.5-2.6-6.2c-1.7-1.7-3.8-2.6-6.2-2.6h-0.1c-2.4,0-4.5,0.9-6.2,2.6c-1.7,1.7-2.6,3.8-2.6,6.2v5.8
			c0,2.4,0.9,4.5,2.6,6.2c1.7,1.7,3.8,2.6,6.2,2.6H317.7z"/>
		<path class="st2" d="M345.9,76.4c-0.9-0.9-1.4-2-1.4-3.3V53.8c0-5,1.8-9.3,5.3-12.8c3.6-3.6,7.8-5.3,12.8-5.3h2.6
			c1.3,0,2.4,0.5,3.3,1.4c0.9,0.9,1.4,2,1.4,3.3s-0.5,2.4-1.4,3.3c-0.9,0.9-2,1.3-3.3,1.3h-2.6c-2.4,0-4.5,0.9-6.2,2.6
			c-1.7,1.7-2.6,3.8-2.6,6.2v19.3c0,1.3-0.5,2.4-1.4,3.3c-0.9,0.9-2,1.4-3.3,1.4S346.8,77.3,345.9,76.4z"/>
		<path class="st2" d="M391.8,77.8c-5,0-9.3-1.8-12.8-5.3s-5.3-7.8-5.3-12.8v-5.8c0-5.2,1.6-9.5,4.9-13c3.3-3.5,7.4-5.2,12.3-5.2
			h0.1c4.9,0,9,1.7,12.3,5.2c3.3,3.5,4.9,7.8,4.9,13v2.9c0,1.3-0.4,2.4-1.3,3.3c-0.9,0.9-2,1.4-3.3,1.4h-20.2c0.4,2,1.4,3.7,3,5
			c1.6,1.3,3.5,2,5.5,2h0.1c2.9,0,5.3-1.2,7.1-3.6c0.8-1,1.8-1.7,3.1-1.9c1.3-0.2,2.5,0.1,3.5,0.9c1,0.8,1.6,1.8,1.8,3.1
			c0.2,1.3-0.1,2.4-0.9,3.5c-1.7,2.3-3.8,4.1-6.4,5.4c-2.6,1.3-5.3,1.9-8.2,1.9H391.8z M398.5,52c-0.3-2-1.1-3.6-2.3-4.9
			c-1.4-1.4-3.2-2.1-5.3-2.1h-0.1c-2.2,0-3.9,0.7-5.3,2.1c-1.2,1.2-2,2.9-2.3,4.9H398.5z"/>
	</g>
</g>
</svg>
