<?xml version="1.0" encoding="utf-8"?>
<svg version="1.1" id="Layer_1" xmlns="http://www.w3.org/2000/svg" xmlns:xlink="http://www.w3.org/1999/xlink" x="0px" y="0px"
	 viewBox="0 0 1141 627" style="enable-background:new 0 0 1141 627;" xml:space="preserve">
<style type="text/css">
	.st0{fill:none;stroke:url(#SVGID_1_);stroke-width:5;stroke-miterlimit:10;}
	.st1{fill:none;stroke:url(#SVGID_2_);stroke-width:5;stroke-miterlimit:10;}
	.st2{fill:none;stroke:url(#SVGID_3_);stroke-width:5;stroke-miterlimit:10;}
	.st3{fill:none;stroke:url(#SVGID_4_);stroke-width:5;stroke-miterlimit:10;}
	.st4{fill:none;stroke:#36D4ED;stroke-width:4;stroke-linecap:round;stroke-linejoin:round;stroke-dasharray:1,17;}
	.st5{fill:#F22F2F;}
	.st6{fill:none;stroke:#212121;stroke-width:4;stroke-linecap:round;stroke-linejoin:round;}
	.st7{fill:#212121;}
	.st8{fill:#1CBF43;}
	.st9{fill:none;stroke:#212121;stroke-width:3.82;stroke-linecap:round;stroke-linejoin:round;}
	.st10{fill:#FFFFFF;}
	.st11{fill:#343434;}
	.st12{fill:none;}
	.st13{fill:none;stroke:url(#SVGID_5_);stroke-width:5;stroke-miterlimit:10;}
	.st14{fill:none;stroke:url(#SVGID_6_);stroke-width:5;stroke-miterlimit:10;}
	.st15{fill:#FFFFFF;stroke:#343434;stroke-width:0.23;stroke-miterlimit:10;}
</style>
<title>Homepage</title>
<linearGradient id="SVGID_1_" gradientUnits="userSpaceOnUse" x1="198.92" y1="237.6" x2="575" y2="237.6" gradientTransform="matrix(1 0 0 -1 0 628)">
	<stop  offset="0" style="stop-color:#161616"/>
	<stop  offset="1.000000e-02" style="stop-color:#2C1919"/>
	<stop  offset="2.000000e-02" style="stop-color:#551D1D"/>
	<stop  offset="4.000000e-02" style="stop-color:#7B2121"/>
	<stop  offset="6.000000e-02" style="stop-color:#9B2525"/>
	<stop  offset="7.000000e-02" style="stop-color:#B72828"/>
	<stop  offset="0.1" style="stop-color:#CD2B2B"/>
	<stop  offset="0.12" style="stop-color:#DE2D2D"/>
	<stop  offset="0.15" style="stop-color:#E92E2E"/>
	<stop  offset="0.2" style="stop-color:#F02F2F"/>
	<stop  offset="0.32" style="stop-color:#F22F2F"/>
</linearGradient>
<path class="st0" d="M572.5,296.4c0,102.5-83.1,185.5-185.5,185.5s-185.5-83.1-185.5-185.5"/>
<linearGradient id="SVGID_2_" gradientUnits="userSpaceOnUse" x1="162.37" y1="421.755" x2="574.67" y2="421.755" gradientTransform="matrix(1 0 0 -1 0 628)">
	<stop  offset="0" style="stop-color:#212121"/>
	<stop  offset="0.81" style="stop-color:#4991CC"/>
	<stop  offset="0.98" style="stop-color:#FF1D25;stop-opacity:0.9"/>
</linearGradient>
<path class="st1" d="M164.9,309.3c0-112.5,91.2-203.6,203.6-203.6s203.6,91.2,203.6,203.6"/>
<linearGradient id="SVGID_3_" gradientUnits="userSpaceOnUse" x1="445.8209" y1="219.2656" x2="880.2583" y2="219.2656" gradientTransform="matrix(1 0 0 -1 0 628)">
	<stop  offset="1.000000e-02" style="stop-color:#1CBF43"/>
	<stop  offset="1" style="stop-color:#212121"/>
</linearGradient>
<path class="st2" d="M877.8,330.7C856.2,419,768.3,485.1,663.1,485.1s-193.3-66.2-214.8-154.7"/>
<linearGradient id="SVGID_4_" gradientUnits="userSpaceOnUse" x1="692.61" y1="272.9355" x2="883.15" y2="272.9355" gradientTransform="matrix(1 0 0 -1 0 628)">
	<stop  offset="1.000000e-02" style="stop-color:#1CBF43"/>
	<stop  offset="1" style="stop-color:#212121"/>
</linearGradient>
<path class="st3" d="M880.7,307.4c0,51.2-41.5,92.8-92.7,92.8c-51.2,0-92.8-41.5-92.8-92.7c0,0,0-0.1,0-0.1"/>
<line class="st4" x1="1017.5" y1="311" x2="201.5" y2="311"/>
<circle class="st5" cx="569.4" cy="312.8" r="21"/>
<line class="st6" x1="569.5" y1="303" x2="569.5" y2="315"/>
<circle class="st7" cx="569.8" cy="321.5" r="2.3"/>
<circle class="st8" cx="696.4" cy="313.1" r="21"/>
<polyline class="st9" points="691.1,313.8 696.3,317.6 702.6,308 "/>
<path class="st7" d="M844.1,291.6h204.8c2.6,0,4.6,2.1,4.6,4.6v31.7c0,2.6-2.1,4.6-4.6,4.6H844.1c-2.6,0-4.6-2.1-4.6-4.6v-31.7
	C839.5,293.7,841.5,291.6,844.1,291.6z"/>
<path class="st10" d="M1037.5,324.7H1023c-1.2,0-2.2-1-2.2-2.2v-19c0-1.2,1-2.2,2.2-2.2h14.5c1.2,0,2.2,1,2.2,2.2l0,0v19
	C1039.7,323.7,1038.8,324.7,1037.5,324.7z M1039,303.5c0-0.9-0.7-1.6-1.6-1.6h-14.2c-0.9,0-1.6,0.7-1.6,1.6v18.8
	c0,0.9,0.7,1.6,1.6,1.6h14.2c0.9,0,1.6-0.7,1.6-1.6V303.5L1039,303.5z"/>
<path class="st10" d="M1032.7,321.5v-9.4c0,0,0.6-2.2-7.5,0.9v-8.6h2.7v5.5c0,0,7.4-2.9,7.4,2.2v9.3L1032.7,321.5L1032.7,321.5z
	 M1034.2,307.7h-2.8c0.8-1,1.4-2.2,1.9-3.4h2.9C1035.7,305.6,1035,306.7,1034.2,307.7L1034.2,307.7z M1025.2,321.4v-5.3l2.7,2.7
	L1025.2,321.4L1025.2,321.4z"/>
<path id="engine-northeast" class="st10" d="M1001.7,312.6l3.5-6.1l-3.5-6.1h-7l-3.5,6.1l3.5,6.1H1001.7z"/>
<path id="crown-engine-northeast" class="st11" d="M994.6,300.3l-3.6,6.3l3.6,6.3h7.2l3.6-6.3l-3.6-6.3H994.6z M994.8,300.7h6.8
	l3.4,5.9l-3.4,5.9h-6.8l-3.4-5.9L994.8,300.7z"/>
<path id="engine-southeast" class="st10" d="M991.2,318.7l3.5,6.1h7l3.5-6.1l-3.5-6.1h-7L991.2,318.7z"/>
<path id="crown-engine-southeast" class="st11" d="M994.6,312.4l-3.6,6.3l3.6,6.3h7.2l3.6-6.3l-3.6-6.3L994.6,312.4L994.6,312.4z
	 M994.8,312.8h6.8l3.4,5.9l-3.4,5.9h-6.8l-3.4-5.9L994.8,312.8z"/>
<path id="engine-west" class="st10" d="M991.2,306.5h-7l-3.5,6.1l3.5,6.1h7l3.5-6.1L991.2,306.5z"/>
<path id="crown-engine-west" class="st11" d="M984.1,306.3l-3.6,6.3l3.6,6.3h7.2l3.6-6.3l-3.6-6.3H984.1z M984.3,306.7h6.8l3.4,5.9
	l-3.4,5.9h-6.8l-3.4-5.9L984.3,306.7z"/>
<path id="triangle" class="st11" d="M991.1,306.3v12.5l10.9-6.3L991.1,306.3z M991.5,307l9.7,5.6l-9.7,5.6V307z"/>
<path id="circle" class="st11" d="M994.7,305.6c-3.9,0-7,3.1-7,7s3.1,7,7,7s7-3.1,7-7S998.6,305.6,994.7,305.6z M994.7,306
	c3.7,0,6.6,3,6.6,6.6s-3,6.6-6.6,6.6s-6.6-3-6.6-6.6l0,0C988.1,309,991.1,306,994.7,306L994.7,306z"/>
<polygon class="st10" points="945.8,325.9 941.8,324.4 941.8,318.6 945.8,319.9 "/>
<polygon class="st10" points="946.5,325.9 950.5,324.4 950.5,318.6 946.5,319.9 "/>
<polygon class="st10" points="942.2,318.1 946.2,317 950,318.2 946.2,319.5 "/>
<polygon class="st10" points="941,317.7 937,316.2 937,310.4 941,311.7 "/>
<polygon class="st10" points="941.8,317.7 945.8,316.2 945.8,310.4 941.8,311.7 "/>
<polygon class="st10" points="937.4,309.9 941.5,308.8 945.2,310 941.5,311.3 "/>
<polygon class="st10" points="950.4,317.7 946.4,316.2 946.4,310.4 950.4,311.7 "/>
<polygon class="st10" points="951.1,317.7 955.1,316.2 955.1,310.4 951.1,311.7 "/>
<polygon class="st10" points="946.8,309.9 950.8,308.8 954.6,310 950.8,311.3 "/>
<polygon class="st10" points="955.1,309.5 951.1,308 951.1,302.2 955.1,303.5 "/>
<polygon class="st10" points="955.9,309.5 959.9,308 959.9,302.2 955.9,303.5 "/>
<polygon class="st10" points="951.5,301.7 955.6,300.6 959.3,301.8 955.6,303.1 "/>
<polygon class="st10" points="964.5,309.5 960.5,308 960.5,302.2 964.5,303.5 "/>
<polygon class="st10" points="965.2,309.5 969.2,308 969.2,302.2 965.2,303.5 "/>
<polygon class="st10" points="960.9,301.7 964.9,300.6 968.7,301.8 964.9,303.1 "/>
<rect x="846.6" y="297.7" class="st12" width="32.8" height="27.7"/>
<path class="st10" d="M885.4,308.5c-1.2-0.5-2.5-0.7-3.8-0.4c-0.2-1.3-1-2.5-2.1-3.3l-0.7-0.5l-0.5,0.7c-0.6,1-0.9,2.3-0.8,3.5
	c0.1,0.7,0.3,1.3,0.6,1.9c-0.8,0.4-1.6,0.6-2.5,0.5h-22.5v0.3c-0.3,2.9,0.5,5.8,2.3,8.1c1.9,2.3,4.8,3.4,8.5,3.4
	c8.1,0,14.2-3.8,17-10.6c1.9,0.2,3.8-0.7,4.7-2.3c0,0,0.1-0.2,0.3-0.6l0.1-0.2L885.4,308.5z M867.6,302.9h3.4v-3.1h-3.4V302.9z
	 M867.6,306.6h3.4v-3.1h-3.4V306.6z M863.6,306.6h3.4v-3.1h-3.4L863.6,306.6z M859.6,306.6h3.4v-3.1h-3.4L859.6,306.6z M855.6,310.3
	h3.4v-3.1h-3.4V310.3z M859.6,310.3h3.4v-3.1h-3.4L859.6,310.3z M863.6,310.3h3.4v-3.1h-3.4L863.6,310.3z M867.6,310.3h3.4v-3.1
	h-3.4V310.3z M871.6,310.3h3.4v-3.1h-3.4V310.3z"/>
<path class="st7" d="M497.5,483.4H535c1,0,1.9,2.4,1.9,5.3v30.5c0,2.9-0.8,5.3-1.9,5.3h-37.5c-1,0-1.9-2.4-1.9-5.3v-30.5
	C495.7,485.8,496.5,483.4,497.5,483.4z"/>
<path class="st10" d="M919.6,274.3l0.9-0.7c0.6,1.2,1.9,1.9,3.2,1.8c1.5,0,2.6-0.6,2.6-1.9s-0.6-1.7-2.9-2.3s-3.3-1.4-3.3-3.1
	s1.4-3,3.5-3c1.5-0.1,3,0.7,3.7,2l-0.9,0.7c-0.6-1-1.7-1.6-2.8-1.6c-1.3,0-2.2,0.5-2.2,1.8c0,1.1,0.4,1.6,2.6,2.1
	c2.6,0.5,3.6,1.5,3.6,3.3s-1.5,3-3.8,3C922,276.5,920.4,275.7,919.6,274.3z"/>
<path class="st10" d="M929.9,276.4v-11.5h1.2v4.6c0.5-1,1.5-1.6,2.6-1.6c1.4,0,2.5,1.1,2.5,2.4c0,0.1,0,0.2,0,0.3v5.8H935v-5.5
	c0-1.3-0.6-1.9-1.6-1.9c-1,0-1.9,0.6-2.3,1.5v5.8H929.9z"/>
<path class="st10" d="M938.8,265.6c0.1-0.5,0.5-0.8,0.9-0.8c0.4,0,0.7,0.4,0.8,0.8c-0.1,0.5-0.5,0.8-0.9,0.8
	C939.2,266.3,938.9,266,938.8,265.6z M939.1,268h1.2v8.4h-1.2V268z"/>
<path class="st10" d="M944.4,276v3.2h-1.2V268h1.2v1.3c0.5-0.9,1.5-1.4,2.5-1.5c1.6,0,2.9,1.3,2.9,4.2c0,3.1-1.5,4.4-3.2,4.4
	C945.8,276.5,945.1,276.4,944.4,276z M948.5,272.1c0-2.4-0.9-3.1-2-3.1c-0.9,0-1.7,0.6-2.1,1.3v4.5c0.6,0.4,1.2,0.6,1.9,0.6
	C947.6,275.4,948.5,274.5,948.5,272.1L948.5,272.1z"/>
<path class="st10" d="M957.3,273.7v-4.6h-1.7V268h1.7v-2.3h1.2v2.3h2.7v1.1h-2.7v4.7c0,1.1,0.5,1.7,1.3,1.7c0.4,0,0.9-0.1,1.3-0.3
	l0.3,1c-0.5,0.2-1.1,0.3-1.7,0.3C958.2,276.5,957.3,275.5,957.3,273.7z"/>
<path class="st10" d="M962.9,272.2c0-2.9,1.3-4.4,3.3-4.4s3.3,1.4,3.3,4.4s-1.4,4.3-3.3,4.3S962.9,275.1,962.9,272.2z M968.3,272.2
	c0-2.3-0.7-3.3-2.1-3.3s-2.1,1-2.1,3.3s0.7,3.2,2.1,3.2S968.3,274.5,968.3,272.2L968.3,272.2z"/>
<path class="st10" d="M976.4,265.2h3.1c2.2,0,3.9,1.1,3.9,3.8s-1.7,3.8-3.9,3.8h-1.9v3.6h-1.2V265.2z M979.5,271.7
	c1.5,0,2.7-0.6,2.7-2.8s-1.2-2.7-2.7-2.7h-1.9v5.4H979.5z"/>
<path class="st10" d="M985.5,276.4V268h1.2v1.4c0.4-0.9,1.4-1.5,2.4-1.5c0.3,0,0.7,0.1,1,0.2l-0.3,1.1c-0.3-0.1-0.6-0.2-0.9-0.2
	c-0.9,0-1.8,0.6-2.2,1.4v6L985.5,276.4z"/>
<path class="st10" d="M991.1,272.2c0-2.9,1.3-4.4,3.3-4.4s3.3,1.4,3.3,4.4s-1.4,4.3-3.3,4.3S991.1,275.1,991.1,272.2z M996.5,272.2
	c0-2.3-0.7-3.3-2.1-3.3s-2.1,1-2.1,3.3s0.7,3.2,2.1,3.2S996.5,274.5,996.5,272.2L996.5,272.2z"/>
<path class="st10" d="M1005,268.4v-3.5h1.2v11.5h-1.2v-1.3c-0.5,0.9-1.5,1.4-2.5,1.4c-1.6,0-2.8-1.3-2.8-4.2c0-3.1,1.5-4.4,3.2-4.4
	C1003.7,267.8,1004.4,268,1005,268.4z M1000.9,272.3c0,2.4,0.9,3.1,2,3.1c0.9-0.1,1.7-0.6,2.1-1.4v-4.5c-0.6-0.4-1.2-0.6-1.9-0.6
	C1001.9,269,1001,269.8,1000.9,272.3L1000.9,272.3z"/>
<path class="st10" d="M1015.4,268v8.4h-1.2v-1.5c-0.5,1-1.5,1.6-2.6,1.6c-1.4,0-2.5-1.1-2.5-2.4c0-0.1,0-0.2,0-0.3V268h1.2v5.5
	c0,1.3,0.6,1.9,1.6,1.9c1-0.1,1.9-0.6,2.3-1.5V268H1015.4z"/>
<path class="st10" d="M1017.9,272.2c0-2.9,1.3-4.3,3.4-4.3c1.4,0,2.7,0.9,3,2.3l-1.1,0.4c-0.3-1.2-1-1.6-1.9-1.6
	c-1.4,0-2.1,0.9-2.1,3.2s0.7,3.2,2.1,3.2c0.9,0,1.6-0.4,1.9-1.6l1.1,0.4c-0.3,1.4-1.6,2.3-3,2.3
	C1019.2,276.5,1017.9,275.1,1017.9,272.2z"/>
<path class="st10" d="M1027.3,273.7v-4.6h-1.7V268h1.7v-2.3h1.2v2.3h2.7v1.1h-2.7v4.7c0,1.1,0.5,1.7,1.3,1.7c0.4,0,0.9-0.1,1.3-0.3
	l0.3,1c-0.5,0.2-1.1,0.3-1.7,0.3C1028.2,276.5,1027.3,275.5,1027.3,273.7z"/>
<path class="st10" d="M1033.2,265.6c0.1-0.5,0.5-0.8,0.9-0.8c0.4,0,0.7,0.4,0.8,0.8c-0.1,0.5-0.5,0.8-0.9,0.8
	C1033.5,266.3,1033.2,266,1033.2,265.6z M1033.4,268h1.2v8.4h-1.2V268z"/>
<path class="st10" d="M1037.1,272.2c0-2.9,1.3-4.4,3.3-4.4s3.3,1.4,3.3,4.4s-1.4,4.3-3.3,4.3S1037.1,275.1,1037.1,272.2z
	 M1042.5,272.2c0-2.3-0.7-3.3-2.1-3.3s-2.1,1-2.1,3.3s0.7,3.2,2.1,3.2S1042.5,274.5,1042.5,272.2L1042.5,272.2z"/>
<path class="st10" d="M1046.2,276.4V268h1.2v1.5c0.5-1,1.5-1.6,2.6-1.6c1.4,0,2.5,1.1,2.5,2.5c0,0.1,0,0.2,0,0.3v5.8h-1.2v-5.5
	c0-1.3-0.6-1.9-1.6-1.9c-1,0.1-1.9,0.6-2.3,1.5v5.8L1046.2,276.4z"/>
<path class="st10" d="M431.5,553.8c-2.5,0-4.2-1.7-4.2-5.8c0-3.9,1.7-5.6,4.2-5.6c1.8-0.2,3.5,1.1,3.7,2.9l-1.2,0.3
	c-0.1-1.3-1.3-2.2-2.6-2.1c-1.8,0-3,1.2-3,4.5c0,3.6,1.2,4.8,3,4.8s2.8-0.9,2.8-3.7h-2.9v-1.1h4.1v1
	C435.5,552.4,433.8,553.8,431.5,553.8z"/>
<path class="st10" d="M441.1,553.8c-2.2,0-3.6-1.5-3.6-4.3s1.3-4.3,3.4-4.3c1.8,0,3.2,1.3,3.2,3.8v0.8h-5.4c0.1,2,0.9,3,2.4,3
	c0.8,0,1.6-0.3,2.1-1l0.8,0.8C443.2,553.4,442.2,553.8,441.1,553.8z M438.7,548.7h4.1c0-1.9-0.9-2.5-2-2.5
	C439.6,546.2,438.8,546.9,438.7,548.7L438.7,548.7z"/>
<path class="st10" d="M447.2,551v-4.6h-1.7v-1.1h1.7V543h1.2v2.3h2.7v1.1h-2.7v4.6c0,1.2,0.5,1.7,1.3,1.7c0.4,0,0.9-0.1,1.3-0.3
	l0.3,1c-0.5,0.2-1.1,0.3-1.6,0.3C448.1,553.8,447.2,552.8,447.2,551z"/>
<path class="st10" d="M458.9,544.3v9.3h-1.1v-11.1h1.4l5.2,9.4v-9.4h1.1v11.1H464L458.9,544.3z"/>
<path class="st10" d="M468,549.5c0-2.9,1.3-4.3,3.4-4.3s3.3,1.4,3.3,4.4s-1.4,4.3-3.4,4.3S468,552.4,468,549.5z M473.4,549.5
	c0-2.3-0.7-3.3-2.1-3.3s-2.1,1-2.1,3.3s0.7,3.2,2.1,3.2S473.4,551.8,473.4,549.5L473.4,549.5z"/>
<path class="st10" d="M477.8,551v-4.6h-1.7v-1.1h1.7V543h1.2v2.3h2.7v1.1H479v4.6c0,1.2,0.5,1.7,1.3,1.7c0.4,0,0.9-0.1,1.3-0.3
	l0.3,1c-0.5,0.2-1.1,0.3-1.6,0.3C478.7,553.8,477.8,552.8,477.8,551z"/>
<path class="st10" d="M483.7,542.9c0.1-0.5,0.5-0.8,0.9-0.8c0.4,0,0.7,0.4,0.8,0.8c-0.1,0.5-0.5,0.8-0.9,0.8
	C484,543.6,483.7,543.3,483.7,542.9z M483.9,545.3h1.2v8.4h-1.2V545.3z"/>
<path class="st10" d="M488.9,546.3h-1.7v-1.1h1.7v-0.8c0-2,2-2.6,3.8-2l-0.3,1c-0.9-0.3-2.3-0.4-2.3,1v0.8h2.4v1.1h-2.4v7.3h-1.2
	L488.9,546.3z"/>
<path class="st10" d="M494.5,542.9c0.1-0.5,0.5-0.8,0.9-0.8c0.4,0,0.7,0.4,0.8,0.8c-0.1,0.5-0.5,0.8-0.9,0.8
	C494.8,543.6,494.5,543.3,494.5,542.9z M494.7,545.3h1.2v8.4h-1.2V545.3z"/>
<path class="st10" d="M502,553.8c-2.2,0-3.6-1.5-3.6-4.3s1.3-4.3,3.4-4.3c1.8,0,3.2,1.3,3.2,3.8v0.8h-5.4c0.1,2,0.9,3,2.4,3
	c0.8,0,1.6-0.3,2.1-1l0.8,0.8C504.2,553.4,503.1,553.8,502,553.8z M499.6,548.7h4.1c0-1.9-0.9-2.5-2-2.5
	C500.5,546.2,499.8,546.9,499.6,548.7L499.6,548.7z"/>
<path class="st10" d="M512.3,545.7v-3.5h1.2v11.5h-1.2v-1.3c-0.5,0.9-1.5,1.4-2.5,1.4c-1.6,0-2.9-1.3-2.9-4.2c0-3.1,1.5-4.4,3.2-4.4
	C511,545.1,511.7,545.3,512.3,545.7z M508.3,549.5c0,2.4,0.9,3.1,2,3.1c0.9,0,1.7-0.6,2.1-1.4v-4.5c-0.6-0.4-1.2-0.6-1.9-0.6
	C509.2,546.2,508.2,547.1,508.3,549.5L508.3,549.5z"/>
<path class="st10" d="M525.7,545.3l-2.3,8.3h-1.2l-2.5-11.1h1.2l1.9,9.5l2.3-8.4h1.1l2.3,8.4l1.9-9.4h1.2l-2.5,11.1H528L525.7,545.3
	z"/>
<path class="st10" d="M533.7,553.6v-11.5h1.2v4.6c0.5-1,1.5-1.6,2.6-1.6c1.4,0,2.5,1.1,2.5,2.4c0,0.1,0,0.2,0,0.3v5.8h-1.2v-5.5
	c0-1.3-0.6-1.9-1.6-1.9c-1,0-1.9,0.6-2.3,1.5v5.8H533.7z"/>
<path class="st10" d="M546.1,553.8c-2.2,0-3.6-1.5-3.6-4.3s1.3-4.3,3.4-4.3c1.8,0,3.2,1.3,3.2,3.8v0.8h-5.4c0.1,2,0.9,3,2.4,3
	c0.8,0,1.6-0.3,2.1-1l0.8,0.8C548.2,553.4,547.2,553.8,546.1,553.8z M543.7,548.7h4.2c0-1.9-0.9-2.5-2-2.5
	C544.6,546.2,543.8,546.9,543.7,548.7L543.7,548.7z"/>
<path class="st10" d="M551.5,553.6v-8.4h1.2v1.5c0.5-1,1.5-1.6,2.6-1.6c1.4,0,2.5,1.1,2.5,2.5c0,0.1,0,0.2,0,0.3v5.8h-1.2v-5.5
	c0-1.3-0.6-1.9-1.6-1.9c-1,0.1-1.9,0.6-2.3,1.5v5.8L551.5,553.6z"/>
<path class="st10" d="M563.9,550.3l1.2-0.2c0.1,1.8,0.8,2.6,2.2,2.6s2.2-1.1,2.2-2.6v-7.6h1.2v7.6c0,2.2-1.2,3.7-3.4,3.7
	C565.5,553.8,564.1,552.6,563.9,550.3z"/>
<path class="st10" d="M573.1,549.5c0-2.9,1.3-4.3,3.3-4.3s3.3,1.4,3.3,4.4s-1.4,4.3-3.3,4.3S573.1,552.4,573.1,549.5z M578.5,549.5
	c0-2.3-0.7-3.3-2.1-3.3s-2.1,1-2.1,3.3s0.7,3.2,2.1,3.2S578.5,551.8,578.5,549.5L578.5,549.5z"/>
<path class="st10" d="M583.4,553.2v0.4h-1.2v-11.5h1.2v4.4c0.5-0.9,1.4-1.4,2.5-1.5c1.6,0,2.9,1.3,2.9,4.2c0,3.1-1.5,4.4-3.2,4.4
	C584.8,553.8,584,553.6,583.4,553.2z M587.5,549.4c0-2.4-0.9-3.1-2-3.1c-0.9,0.1-1.7,0.6-2.1,1.3v4.5c0.6,0.4,1.2,0.6,1.9,0.6
	C586.6,552.7,587.5,551.8,587.5,549.4z"/>
<path class="st10" d="M590.7,552.8l0.6-0.9c0.7,0.6,1.6,0.9,2.6,0.9c1,0,1.9-0.3,1.9-1.2s-0.5-1.1-2-1.4c-1.9-0.4-2.8-1-2.8-2.5
	s1.2-2.4,2.8-2.4c1.1,0,2.1,0.4,2.9,1L596,547c-0.7-0.5-1.5-0.9-2.3-0.9c-0.8,0-1.6,0.3-1.6,1.2s0.5,1.1,2,1.4
	c1.8,0.4,2.8,0.9,2.8,2.5s-1.4,2.4-3.1,2.4C592.7,553.8,591.6,553.4,590.7,552.8z"/>
<path class="st10" d="M472.4,563.5h3.1c2.2,0,3.9,1.1,3.9,3.8s-1.7,3.8-3.9,3.8h-1.9v3.6h-1.2L472.4,563.5z M475.5,570
	c1.5,0,2.7-0.6,2.7-2.8s-1.2-2.7-2.7-2.7h-1.9v5.5L475.5,570z"/>
<path class="st10" d="M486.1,573.5c-0.7,0.8-1.6,1.3-2.7,1.3c-1.3,0.1-2.4-0.8-2.5-2.1c0-0.1,0-0.2,0-0.3c-0.1-1.3,1-2.4,2.3-2.5
	c0.1,0,0.2,0,0.4,0h2.2v-1c0-1.1-0.5-1.8-1.7-1.8c-0.9-0.1-1.7,0.5-1.9,1.4l-1-0.5c0.5-1.2,1.7-2,3-1.9c1.4-0.1,2.6,0.9,2.8,2.3
	c0,0.1,0,0.2,0,0.3v4c0,0.8,0.5,1.1,1.2,0.9v1.1c-0.8,0.3-1.7-0.1-2-0.9C486.2,573.7,486.1,573.6,486.1,573.5z M485.8,572.8v-1.8
	h-2.1c-0.9,0-1.5,0.4-1.5,1.3c0,0.8,0.5,1.4,1.3,1.5c0.1,0,0.2,0,0.3,0C484.5,573.7,485.2,573.4,485.8,572.8z"/>
<path class="st10" d="M489.5,573.8l0.6-0.9c0.7,0.6,1.6,0.9,2.6,0.9c1,0,1.9-0.3,1.9-1.2s-0.5-1.1-2-1.4c-1.9-0.4-2.8-1-2.8-2.5
	s1.2-2.4,2.8-2.4c1.1,0,2.1,0.4,2.9,1l-0.6,0.9c-0.7-0.5-1.5-0.9-2.4-0.9c-0.9,0-1.6,0.3-1.6,1.2s0.5,1.1,2,1.4
	c1.8,0.4,2.8,0.9,2.8,2.5s-1.4,2.4-3.1,2.4C491.5,574.8,490.4,574.4,489.5,573.8z"/>
<path class="st10" d="M497.5,573.8l0.6-0.9c0.7,0.6,1.6,0.9,2.6,0.9c1,0,1.9-0.3,1.9-1.2s-0.5-1.1-2-1.4c-1.9-0.4-2.8-1-2.8-2.5
	s1.2-2.4,2.8-2.4c1.1,0,2.1,0.4,2.9,1l-0.6,0.9c-0.7-0.5-1.5-0.9-2.4-0.9c-0.9,0-1.6,0.3-1.6,1.2s0.5,1.1,2,1.4
	c1.8,0.4,2.8,0.9,2.8,2.5s-1.4,2.4-3.1,2.4C499.6,574.8,498.5,574.4,497.5,573.8z"/>
<path class="st10" d="M510.1,570.5c0-2.9,1.3-4.3,3.4-4.3s3.3,1.4,3.3,4.4s-1.4,4.3-3.3,4.3S510.1,573.4,510.1,570.5z M515.5,570.5
	c0-2.3-0.7-3.3-2.1-3.3s-2.1,1-2.1,3.3s0.7,3.2,2.1,3.2S515.5,572.8,515.5,570.5L515.5,570.5z"/>
<path class="st10" d="M519.2,574.6v-8.4h1.2v1.4c0.4-0.9,1.4-1.5,2.4-1.5c0.3,0,0.7,0.1,1,0.2l-0.3,1.1c-0.3-0.1-0.6-0.2-0.9-0.2
	c-0.9,0-1.8,0.6-2.2,1.4v6L519.2,574.6z"/>
<path class="st10" d="M529.4,563.5h6.7v1.1h-5.5v3.8h4.6v1.1h-4.6v5.3h-1.2V563.5z"/>
<path class="st10" d="M542.4,573.5c-0.7,0.8-1.6,1.3-2.7,1.3c-1.3,0.1-2.4-0.8-2.5-2.1c0-0.1,0-0.2,0-0.3c-0.1-1.3,1-2.4,2.3-2.5
	c0.1,0,0.2,0,0.4,0h2.1v-1c0-1.1-0.5-1.8-1.7-1.8c-0.9-0.1-1.7,0.5-1.9,1.4l-1-0.5c0.5-1.2,1.7-2,3-1.9c1.4-0.1,2.6,0.9,2.8,2.3
	c0,0.1,0,0.2,0,0.3v4c0,0.8,0.5,1.1,1.2,0.9v1.1c-0.8,0.3-1.7-0.2-1.9-1C542.4,573.6,542.4,573.6,542.4,573.5z M542,572.8v-1.8h-2.1
	c-0.9,0-1.5,0.4-1.5,1.3c0,0.8,0.5,1.4,1.3,1.5c0.1,0,0.2,0,0.3,0C540.8,573.7,541.5,573.4,542,572.8L542,572.8z"/>
<path class="st10" d="M546.1,563.9c0.1-0.5,0.5-0.8,0.9-0.8c0.4,0,0.7,0.4,0.8,0.8c-0.1,0.5-0.5,0.8-0.9,0.8
	C546.4,564.6,546.1,564.3,546.1,563.9z M546.3,566.3h1.2v8.4h-1.2V566.3z"/>
<path class="st10" d="M550.4,563.2h1.2v11.5h-1.2V563.2z"/>
<linearGradient id="SVGID_5_" gradientUnits="userSpaceOnUse" x1="165.5" y1="388.93" x2="446.5" y2="388.93" gradientTransform="matrix(1 0 0 -1 0 628)">
	<stop  offset="0" style="stop-color:#212121"/>
	<stop  offset="0.73" style="stop-color:#4991CC"/>
	<stop  offset="1" style="stop-color:#1CBF43"/>
</linearGradient>
<path class="st13" d="M168,309.3c0-76.2,61.8-138,138-138s138,61.8,138,138"/>
<linearGradient id="SVGID_6_" gradientUnits="userSpaceOnUse" x1="198.89" y1="442.715" x2="695.03" y2="442.715" gradientTransform="matrix(1 0 0 -1 0 628)">
	<stop  offset="0" style="stop-color:#1A1A1A;stop-opacity:0.7"/>
	<stop  offset="0" style="stop-color:#291B1B;stop-opacity:0.69"/>
	<stop  offset="1.000000e-02" style="stop-color:#5F2121;stop-opacity:0.67"/>
	<stop  offset="2.000000e-02" style="stop-color:#8D2525;stop-opacity:0.65"/>
	<stop  offset="3.000000e-02" style="stop-color:#B22929;stop-opacity:0.63"/>
	<stop  offset="4.000000e-02" style="stop-color:#CF2C2C;stop-opacity:0.62"/>
	<stop  offset="5.000000e-02" style="stop-color:#E32E2E;stop-opacity:0.61"/>
	<stop  offset="6.000000e-02" style="stop-color:#EF2F2F;stop-opacity:0.6"/>
	<stop  offset="0.11" style="stop-color:#F22F2F;stop-opacity:0.6"/>
	<stop  offset="0.12" style="stop-color:#E83839;stop-opacity:0.62"/>
	<stop  offset="0.15" style="stop-color:#C3585E;stop-opacity:0.7"/>
	<stop  offset="0.19" style="stop-color:#A17681;stop-opacity:0.77"/>
	<stop  offset="0.31" style="stop-color:#4991CC;stop-opacity:0.93"/>
	<stop  offset="0.37" style="stop-color:#4991CC;stop-opacity:0.96"/>
	<stop  offset="0.44" style="stop-color:#4991CC;stop-opacity:0.98"/>
	<stop  offset="0.54" style="stop-color:#4991CC"/>
	<stop  offset="0.8" style="stop-color:#4991CC"/>
	<stop  offset="0.99" style="stop-color:#1CBF43"/>
</linearGradient>
<path class="st14" d="M201.4,309.3c0-135.6,109.9-245.6,245.6-245.6s245.5,109.9,245.5,245.6"/>
<path class="st7" d="M134.5,291.4h81c2.9,0,5.2,2.3,5.2,5.2v31c0,2.9-2.3,5.2-5.2,5.2h-81c-2.9,0-5.2-2.3-5.2-5.2v-31
	C129.3,293.7,131.6,291.4,134.5,291.4z"/>
<path class="st10" d="M153.5,301.9c-6.2,0-11.2,5.1-11.2,11.3c0,4.8,3.1,9.1,7.7,10.7c0.6,0.1,0.8-0.2,0.8-0.5s0-1,0-1.9
	c-3.1,0.7-3.8-1.5-3.8-1.5c-0.2-0.7-0.7-1.3-1.2-1.6c-1-0.7,0.1-0.7,0.1-0.7c0.7,0.1,1.4,0.5,1.7,1.2c0.6,1.2,2.1,1.6,3.2,0.9
	c0,0,0,0,0,0c0.1-0.6,0.3-1.1,0.7-1.5c-2.5-0.3-5.1-1.2-5.1-5.6c0-1.1,0.4-2.2,1.2-3c-0.4-1-0.3-2.1,0.1-3c0,0,0.9-0.3,3.1,1.1
	c1.8-0.5,3.8-0.5,5.6,0c2.1-1.5,3.1-1.1,3.1-1.1c0.4,0.9,0.5,2,0.1,3c0.8,0.8,1.2,1.9,1.2,3c0,4.3-2.6,5.3-5.1,5.5
	c0.5,0.6,0.8,1.3,0.8,2.1c0,1.5,0,2.7,0,3.1s0.2,0.6,0.8,0.5c5.9-2,9.1-8.4,7.1-14.3C162.6,305,158.3,302,153.5,301.9L153.5,301.9z"
	/>
<path class="st10" d="M206.6,304.1c-0.1-0.2-0.3-0.4-0.5-0.5c-0.4-0.3-0.9-0.6-1.4-0.8c-1.1-0.4-2.2-0.7-3.3-0.9
	c-2.7-0.4-5.5-0.4-8.2,0c-1,0.1-1.9,0.4-2.8,0.7c-0.6,0.2-1.2,0.5-1.7,0.8c-0.3,0.2-0.5,0.4-0.7,0.6c-0.2,0.3-0.3,0.6-0.3,1
	c0.1,0.8,0.2,1.5,0.4,2.3c0.2,1.1,0.4,2.3,0.6,3.4c0.2,1.3,0.4,2.5,0.6,3.8c0,0.3,0.2,0.5,0.4,0.8c0.1,0.1,0.3,0.3,0.4,0.4
	c0.5,0.4,1.1,0.8,1.7,1c1.5,0.6,3,0.9,4.6,0.9c1.1,0.1,2.3,0,3.4-0.1c1-0.1,1.9-0.3,2.8-0.7c0.7-0.2,1.3-0.6,1.9-1
	c0.3-0.2,0.5-0.4,0.7-0.6c0.1-0.2,0.2-0.4,0.2-0.6c0.3-1.6,0.6-3.3,0.8-4.9s0.5-3,0.7-4.6C206.9,304.7,206.8,304.4,206.6,304.1z
	 M197.2,315.4c-1.7,0-3.1-1.4-3-3.1c0-1.7,1.4-3.1,3.1-3c1.7,0,3.1,1.4,3,3.1c0,0,0,0,0,0C200.2,314.1,198.8,315.4,197.2,315.4
	L197.2,315.4z M203.3,304.7c-0.1,0.1-0.2,0.2-0.3,0.2c-0.3,0.2-0.7,0.3-1,0.4c-0.7,0.2-1.3,0.3-2,0.3c-0.9,0.1-1.8,0.1-2.7,0.1
	c-1,0-2-0.1-3-0.2c-0.7-0.1-1.5-0.2-2.2-0.4c-0.2-0.1-0.4-0.2-0.6-0.3c-0.1-0.1-0.2-0.1-0.3-0.2c-0.1-0.1-0.1-0.3,0-0.4c0,0,0,0,0,0
	c0.1-0.1,0.2-0.2,0.3-0.2c0.3-0.2,0.7-0.3,1-0.4c0.7-0.2,1.4-0.3,2.1-0.4c1.2-0.1,2.3-0.2,3.5-0.1c1.1,0,2.1,0.1,3.2,0.3
	c0.5,0.1,1,0.2,1.5,0.4c0.2,0.1,0.3,0.1,0.5,0.2c0.1,0.1,0.1,0.1,0.2,0.2C203.5,304.4,203.5,304.6,203.3,304.7
	C203.3,304.7,203.3,304.7,203.3,304.7L203.3,304.7z M204.4,317.6c0,0.1,0,0.1,0,0.2c-0.2,1.1-0.4,2.2-0.6,3.4
	c-0.1,0.4-0.2,0.7-0.5,1c-0.3,0.3-0.6,0.5-1,0.7c-0.7,0.3-1.4,0.6-2.2,0.7c-0.8,0.2-1.7,0.3-2.5,0.3c-1.4,0-2.8-0.1-4.2-0.5
	c-0.6-0.2-1.1-0.4-1.6-0.7c-0.3-0.2-0.5-0.3-0.7-0.5c-0.3-0.3-0.5-0.6-0.5-1c-0.2-1.1-0.4-2.2-0.6-3.4c0-0.1,0-0.1,0-0.2
	c0-0.2,0.1-0.3,0.3-0.3c0.1,0,0.1,0,0.2,0h0.1c0.8,0.6,1.7,1,2.7,1.3c0.9,0.3,1.8,0.5,2.7,0.5c1.1,0.1,2.1,0.1,3.2-0.1
	c1.4-0.2,2.8-0.6,4-1.3c0.2-0.1,0.5-0.3,0.7-0.5l0.1-0.1C204.2,317.2,204.4,317.3,204.4,317.6C204.4,317.5,204.4,317.6,204.4,317.6
	L204.4,317.6z M198.7,312.3c0,0.9-0.7,1.5-1.5,1.5c-0.9,0-1.5-0.7-1.5-1.5c0-0.9,0.7-1.5,1.5-1.5c0,0,0,0,0,0
	C198,310.8,198.7,311.5,198.7,312.3C198.7,312.3,198.7,312.3,198.7,312.3L198.7,312.3z"/>
<path class="st10" d="M130.7,270.7c0-3.9,1.7-5.6,4.2-5.6c2-0.1,3.7,1.4,3.8,3.4c0,0,0,0,0,0l-1.2,0.3c-0.2-1.7-1-2.6-2.7-2.6
	c-1.8,0-3,1.1-3,4.5c0,3.6,1.2,4.8,3,4.8s2.5-1,2.7-2.6l1.2,0.3c-0.1,2-1.8,3.5-3.7,3.4c0,0-0.1,0-0.1,0
	C132.4,276.5,130.7,274.8,130.7,270.7z"/>
<path class="st10" d="M140.7,272.2c0-2.9,1.3-4.4,3.4-4.4s3.3,1.4,3.3,4.4s-1.4,4.3-3.4,4.3S140.7,275.1,140.7,272.2z M146.1,272.2
	c0-2.3-0.7-3.3-2.1-3.3s-2.1,1-2.1,3.3s0.7,3.2,2.1,3.2S146.1,274.5,146.1,272.2L146.1,272.2z"/>
<path class="st10" d="M151,276.4h-1.2V268h1.2v1.1c0.6-0.8,1.6-1.3,2.6-1.3c0.9,0,1.8,0.6,2,1.5c0.6-0.9,1.6-1.5,2.7-1.5
	c1.3,0,2.1,1,2.1,2.5v6h-1.2v-5.8c0-1.1-0.5-1.6-1.2-1.6c-0.9,0-1.7,0.5-2.2,1.2v6.1h-1.2v-5.8c0-1.1-0.5-1.6-1.3-1.6
	c-0.9,0-1.7,0.5-2.2,1.2L151,276.4z"/>
<path class="st10" d="M164.4,276.4h-1.2V268h1.2v1.1c0.6-0.8,1.6-1.3,2.6-1.3c0.9,0,1.8,0.6,2,1.5c0.6-0.9,1.6-1.5,2.7-1.5
	c1.3,0,2.1,1,2.1,2.5v6h-1.2v-5.8c0-1.1-0.5-1.6-1.2-1.6c-0.9,0-1.7,0.5-2.2,1.2v6.1h-1.2v-5.8c0-1.1-0.5-1.6-1.3-1.6
	c-0.9,0-1.7,0.5-2.2,1.2L164.4,276.4z"/>
<path class="st10" d="M176.4,265.6c0.1-0.5,0.5-0.8,0.9-0.8c0.4,0,0.7,0.4,0.8,0.8c-0.1,0.5-0.5,0.8-0.9,0.8
	C176.8,266.3,176.5,266,176.4,265.6z M176.7,268h1.2v8.4h-1.2V268z"/>
<path class="st10" d="M181.5,273.7v-4.6h-1.7V268h1.7v-2.3h1.2v2.3h2.7v1.1h-2.7v4.7c0,1.1,0.5,1.7,1.3,1.7c0.4,0,0.9-0.1,1.3-0.3
	l0.3,1c-0.5,0.2-1.1,0.3-1.6,0.3C182.4,276.5,181.5,275.5,181.5,273.7z"/>
<circle class="st8" cx="442" cy="313.1" r="21"/>
<polyline class="st9" points="436.7,313.8 441.9,317.6 448.2,308 "/>
<path class="st10" d="M910.9,315.3c-2.1,0-3.7-1.7-3.7-3.7s1.7-3.7,3.7-3.7c2.1,0,3.7,1.7,3.7,3.7c0,0,0,0,0,0
	C914.6,313.6,913,315.3,910.9,315.3"/>
<path class="st10" d="M900.1,306.1l-0.2,0.3c0,0.4,0,0.8,0.2,1.1l2.3,4l1.2-2.1L900.1,306.1"/>
<path class="st15" d="M918.4,300.4c-0.4-0.5-0.9-0.9-1.6-0.9H905c-0.7,0-1.2,0.4-1.6,0.9l-3.5,6c0,0.4,0,0.8,0.2,1.1l2.3,4l4.2-7.2
	h13.2c0.4,0,0.7,0.1,1,0.3L918.4,300.4z M905.3,302.5c-0.4,0-0.7-0.3-0.7-0.7s0.3-0.7,0.7-0.7c0.4,0,0.7,0.3,0.7,0.7v0
	C906,302.2,905.7,302.5,905.3,302.5C905.3,302.5,905.3,302.5,905.3,302.5L905.3,302.5z M916.5,302.5c-0.4,0-0.7-0.3-0.7-0.7
	c0-0.4,0.3-0.7,0.7-0.7c0.4,0,0.7,0.3,0.7,0.7l0,0C917.1,302.2,916.8,302.5,916.5,302.5C916.5,302.5,916.5,302.5,916.5,302.5
	L916.5,302.5z"/>
<path class="st15" d="M924.3,310.6l-3.5-6.1c-0.3-0.2-0.6-0.3-1-0.3h-4.7l4.1,7.2l-6.5,11.5c-0.2,0.3-0.4,0.5-0.7,0.6h4.8
	c0.7,0,1.2-0.4,1.6-0.9l5.9-10.2C924.6,311.9,924.6,311.2,924.3,310.6z M916.5,321.9c-0.4,0-0.7-0.3-0.7-0.7s0.3-0.7,0.7-0.7
	c0.4,0,0.7,0.3,0.7,0.7v0C917.2,321.6,916.8,321.9,916.5,321.9z M922.1,312.3c-0.4,0-0.7-0.3-0.7-0.7s0.3-0.7,0.7-0.7
	c0.4,0,0.7,0.3,0.7,0.7v0C922.8,311.9,922.5,312.3,922.1,312.3C922.1,312.3,922.1,312.3,922.1,312.3L922.1,312.3z"/>
<path class="st10" d="M911.6,323.6h0.4c0.3-0.2,0.5-0.4,0.7-0.6l2.4-4.3h-2.6L911.6,323.6"/>
<path class="st15" d="M906.8,318.8l-6.6-11.3c-0.2-0.3-0.2-0.7-0.2-1.1l-2.5,4.3c-0.3,0.6-0.3,1.3,0,1.9l5.9,10.2
	c0.4,0.5,0.9,0.9,1.6,0.9h7c0.3-0.2,0.5-0.4,0.7-0.6l2.4-4.3L906.8,318.8z M899.7,312.3c-0.4,0-0.7-0.3-0.7-0.7s0.3-0.7,0.7-0.7
	c0.4,0,0.7,0.3,0.7,0.7v0C900.4,311.9,900.1,312.3,899.7,312.3L899.7,312.3z M905.3,321.9c-0.4,0-0.7-0.3-0.7-0.7s0.3-0.7,0.7-0.7
	c0.4,0,0.7,0.3,0.7,0.7v0C906,321.6,905.7,321.9,905.3,321.9C905.3,321.9,905.3,321.9,905.3,321.9L905.3,321.9z"/>
<g>
	<path class="st10" d="M507.1,512.7c-4.1-6-1.2-10.7-1.2-10.7c-0.7-0.2-2.8,1.2-2.8,1.2c1.2-4.4,7.8-8.1,7.8-8.1
		c-0.7-0.3-2.8,0.3-2.8,0.3c5.4-5.2,12-3.3,12-3.3c0.2-1.1,3.5-3.1,3.5-3.1c-0.3,0.3-0.5,2.1-0.5,2.1c0.3-0.6,1.4-1.2,1.4-1.2
		c-0.6,1.4,0,4.4,0,4.4c1.7,1.7,3.7,7.7,3.7,7.7l0.7,1.1c0.9,1.3,0.6,3.4-0.3,3.9c-3.5,1.9-3.8-1.5-3.8-1.5c-2.9-0.3-5-3.5-5-3.5
		c-3.9,2-1.7,7.6,0,9.8c2.1,2.8,0.6,7.3,0.6,7.3S511.1,518.7,507.1,512.7z"/>
</g>
</svg>
